<svg width="512" height="512" viewBox="0 0 512 512" fill="none" xmlns="http://www.w3.org/2000/svg">
<path d="M233.749 263.552C232.756 262.561 231.968 261.384 231.43 260.088C230.892 258.792 230.616 257.403 230.616 256C230.616 254.597 230.892 253.208 231.43 251.912C231.968 250.616 232.756 249.439 233.749 248.448L331.584 150.635C337.587 144.634 340.961 136.495 340.963 128.008C340.965 119.52 337.595 111.379 331.595 105.376C325.594 99.3729 317.455 95.9993 308.968 95.9973C300.48 95.9953 292.339 99.3651 286.336 105.365L188.501 203.2C174.523 217.217 166.673 236.204 166.673 256C166.673 275.796 174.523 294.783 188.501 308.8L286.336 406.635C292.339 412.635 300.48 416.005 308.968 416.003C317.455 416.001 325.594 412.627 331.595 406.624C337.595 400.621 340.965 392.48 340.963 383.992C340.961 375.505 337.587 367.366 331.584 361.365L233.749 263.552Z" fill="#FFA500"/>
</svg>
