<svg width="44" height="45" viewBox="0 0 44 45" fill="none" xmlns="http://www.w3.org/2000/svg">
<path d="M10.7361 33.1503C8.42209 30.8603 4.00809 31.3323 1.97809 33.3923C-0.285906 35.6903 -0.0379056 41.1323 0.0600944 42.1543C0.152094 43.1203 0.924094 43.8803 1.89209 43.9583C2.15209 43.9783 7.94809 44.5463 10.6041 41.9203C12.5441 39.8223 13.0401 35.5523 10.7361 33.1503Z" fill="#FFA807"/>
<path d="M34.0933 29.53C46.8193 16.602 42.8633 2.64395 42.6893 2.05595C42.4953 1.40995 41.9933 0.903954 41.3493 0.711954C40.7673 0.535954 26.9353 -3.43405 14.2453 9.45596L4.96327 18.884C3.70327 20.166 3.16327 21.99 3.52527 23.764C3.87527 25.488 5.03527 26.916 6.63927 27.58C8.94727 28.538 10.8533 29.782 12.4313 31.372C13.9673 32.932 15.1373 34.954 16.1693 37.272C18.2513 41.944 23.5013 40.766 24.8113 38.96L34.0933 29.53ZM21.8433 21.928L21.7853 21.87C18.5133 18.546 20.3793 15.658 21.7853 14.23C23.0073 12.99 25.9753 10.81 29.3953 14.23C32.6933 17.528 30.8013 20.442 29.3953 21.87C28.1753 23.11 25.2953 25.38 21.8433 21.928Z" fill="#FFA807"/>
<path d="M2.11353 16.0804L11.3955 6.65241C12.2955 5.73841 13.2035 4.89841 14.1135 4.12841C11.3495 3.16841 8.40153 3.68841 6.65353 4.51241C3.27753 6.10241 0.783532 10.2004 0.509532 10.6624C0.359532 10.9164 0.267532 11.1984 0.239532 11.4924C0.197532 11.9224 -0.0184682 14.7464 0.955532 17.5164C1.28953 17.0064 1.67553 16.5264 2.11153 16.0824L2.11353 16.0804Z" fill="#FFA807"/>
<path d="M38.978 37.2283C39.782 35.4663 40.262 32.4943 39.322 29.7043C38.594 30.5843 37.802 31.4643 36.944 32.3363L27.662 41.7663C27.196 42.2403 26.686 42.6563 26.144 43.0143C28.874 43.9943 31.646 43.7863 32.072 43.7463C32.374 43.7183 32.668 43.6223 32.928 43.4623C33.382 43.1863 37.416 40.6523 38.978 37.2283Z" fill="#FFA807"/>
</svg>
