<svg width="512" height="512" viewBox="0 0 512 512" fill="none" xmlns="http://www.w3.org/2000/svg">
<path d="M336 203.2L238.165 105.365C232.162 99.3651 224.021 95.9953 215.534 95.9973C207.046 95.9993 198.907 99.3729 192.907 105.376C186.906 111.379 183.537 119.52 183.539 128.008C183.541 136.495 186.914 144.634 192.917 150.635L290.752 248.448C291.745 249.439 292.533 250.616 293.071 251.912C293.609 253.208 293.886 254.597 293.886 256C293.886 257.403 293.609 258.792 293.071 260.088C292.533 261.384 291.745 262.561 290.752 263.552L192.917 361.365C186.914 367.366 183.541 375.505 183.539 383.992C183.537 392.48 186.906 400.621 192.907 406.624C198.907 412.627 207.046 416.001 215.534 416.003C224.021 416.005 232.162 412.635 238.165 406.635L336 308.8C349.978 294.783 357.828 275.796 357.828 256C357.828 236.204 349.978 217.217 336 203.2Z" fill="#FFA500"/>
</svg>
