<svg width="591" height="359" viewBox="0 0 591 359" fill="none" xmlns="http://www.w3.org/2000/svg">
<path d="M443.25 217.037C470.45 217.037 492.5 195.05 492.5 167.927C492.5 140.804 470.45 118.816 443.25 118.816C416.05 118.816 394 140.804 394 167.927C394 195.05 416.05 217.037 443.25 217.037Z" fill="#292929"/>
<mask id="mask0_929_619" style="mask-type:luminance" maskUnits="userSpaceOnUse" x="419" y="144" width="49" height="48">
<path d="M467.081 144.163H419.42V191.689H467.081V144.163Z" fill="white"/>
</mask>
<g mask="url(#mask0_929_619)">
<path d="M462.116 175.847C464.859 175.847 467.081 178.064 467.081 180.798C467.081 183.533 464.859 185.749 462.116 185.749H424.385C421.643 185.749 419.42 183.533 419.42 180.798C419.42 178.064 421.643 175.847 424.385 175.847H435.607C436.777 175.847 437.885 176.361 438.64 177.25L439.129 177.828H447.37L447.859 177.25C448.614 176.361 449.723 175.847 450.892 175.847H462.116ZM463.109 160.005V172.104C462.468 171.972 461.807 171.887 461.124 171.887H450.894C448.941 171.887 447.081 172.598 445.64 173.867H440.866C439.423 172.598 437.563 171.887 435.61 171.887H425.378C424.694 171.887 424.034 171.972 423.392 172.104V160.005C423.392 154.546 427.846 150.104 433.321 150.104H453.18C458.655 150.104 463.109 154.546 463.109 160.005ZM437.423 161.764L440.763 158.435C441.538 157.661 441.538 156.409 440.763 155.635C439.986 154.861 438.731 154.861 437.954 155.635L434.616 158.963C432.884 160.69 432.884 163.499 434.646 165.252L437.898 168.367C438.284 168.734 438.778 168.917 439.272 168.917C439.795 168.917 440.315 168.712 440.707 168.307C441.465 167.519 441.439 166.263 440.648 165.506L437.423 162.423C437.24 162.241 437.24 161.946 437.423 161.764ZM451.879 158.963L448.541 155.635C447.764 154.861 446.509 154.861 445.732 155.635C444.957 156.409 444.957 157.661 445.732 158.435L449.072 161.764C449.254 161.946 449.254 162.241 449.102 162.394L445.848 165.506C445.057 166.263 445.03 167.519 445.791 168.307C446.18 168.712 446.703 168.917 447.224 168.917C447.72 168.917 448.215 168.734 448.598 168.367L451.882 165.225C453.614 163.499 453.614 160.69 451.882 158.966L451.879 158.963Z" fill="#FFA807"/>
</g>
<path d="M297.088 98.2213C324.288 98.2213 346.338 76.2337 346.338 49.1106C346.338 21.9876 324.288 0 297.088 0C269.888 0 247.838 21.9876 247.838 49.1106C247.838 76.2337 269.888 98.2213 297.088 98.2213Z" fill="#292929"/>
<mask id="mask1_929_619" style="mask-type:luminance" maskUnits="userSpaceOnUse" x="273" y="25" width="48" height="48">
<path d="M320.919 25.3468H273.258V72.8732H320.919V25.3468Z" fill="white"/>
</mask>
<g mask="url(#mask1_929_619)">
<path d="M320.827 45.1175C321.324 50.5989 319.761 56.009 316.429 60.3498C315.481 61.5834 314.961 63.237 314.961 65.0113V66.9341C314.961 70.2094 312.288 72.8749 309.004 72.8749H295.103C291.817 72.8749 289.145 70.2094 289.145 66.9341H288.163C283.203 66.9341 278.971 63.2349 278.319 58.3318L277.884 55.0525H277.23C274.65 55.0525 273.258 53.0128 273.258 51.0919C273.258 48.282 279.08 37.2023 281.597 34.0973C286.225 27.9367 293.46 24.796 301.087 25.4831C299.322 27.2634 298.035 29.5189 297.455 32.0299C296.207 37.4539 298.286 43.0758 302.755 46.3532L303.046 46.565V48.1136C303.046 51.9355 306.163 55.0445 309.997 55.0445H311.983C315.815 55.0445 318.933 51.9355 318.933 48.1038L318.928 46.575L319.233 46.3512C319.801 45.9353 320.317 45.4661 320.808 44.975C320.811 45.0225 320.822 45.0679 320.827 45.1155V45.1175ZM305.11 43.165H316.879C319.41 41.3054 320.919 38.3846 320.919 35.2439C320.919 32.2081 319.553 29.3823 317.165 27.4911C314.78 25.6 311.679 24.9188 308.649 25.6119C305.034 26.4436 302.158 29.3129 301.326 32.9191C300.418 36.8578 301.91 40.8183 305.11 43.165ZM307.018 47.1255V48.1157C307.018 49.7553 308.352 51.0861 309.997 51.0861H311.983C313.629 51.0861 314.963 49.7553 314.961 48.1136V47.1255H307.018Z" fill="#FFA807"/>
</g>
<path d="M49.25 358.032C76.45 358.032 98.5 336.044 98.5 308.921C98.5 281.798 76.45 259.811 49.25 259.811C22.05 259.811 0 281.798 0 308.921C0 336.044 22.05 358.032 49.25 358.032Z" fill="#292929"/>
<path d="M297.088 315.259C324.288 315.259 346.338 293.271 346.338 266.148C346.338 239.025 324.288 217.037 297.088 217.037C269.888 217.037 247.838 239.025 247.838 266.148C247.838 293.271 269.888 315.259 297.088 315.259Z" fill="#292929"/>
<mask id="mask2_929_619" style="mask-type:luminance" maskUnits="userSpaceOnUse" x="273" y="242" width="48" height="48">
<path d="M320.919 242.384H273.258V289.911H320.919V242.384Z" fill="white"/>
</mask>
<g mask="url(#mask2_929_619)">
<path d="M306.025 278.029C306.025 277.118 305.849 276.257 305.591 275.43L306.684 274.803C307.636 274.257 307.962 273.046 307.413 272.099C306.865 271.152 305.652 270.825 304.702 271.372L303.621 271.993C302.42 270.702 300.855 269.764 299.076 269.358V268.127C299.076 267.034 298.186 266.147 297.09 266.147C295.994 266.147 295.104 267.034 295.104 268.127V269.358C293.325 269.764 291.758 270.7 290.559 271.993L289.479 271.372C288.53 270.825 287.313 271.152 286.768 272.099C286.22 273.046 286.546 274.257 287.497 274.803L288.589 275.43C288.333 276.259 288.155 277.121 288.155 278.029C288.155 278.938 288.333 279.801 288.589 280.627L287.497 281.256C286.546 281.802 286.22 283.011 286.768 283.96C287.316 284.907 288.53 285.234 289.479 284.687L290.559 284.064C291.76 285.356 293.325 286.295 295.104 286.701V287.93C295.104 289.023 295.994 289.91 297.09 289.91C298.186 289.91 299.076 289.023 299.076 287.93V286.701C300.855 286.295 302.422 285.359 303.621 284.064L304.702 284.687C305.652 285.234 306.867 284.907 307.413 283.96C307.962 283.011 307.636 281.802 306.684 281.256L305.591 280.627C305.849 279.8 306.025 278.938 306.025 278.029ZM297.088 280.999C295.446 280.999 294.11 279.667 294.11 278.029C294.11 276.392 295.446 275.058 297.088 275.058C298.731 275.058 300.067 276.392 300.067 278.029C300.067 279.667 298.731 280.999 297.088 280.999ZM320.919 267.132C320.919 272.893 317.607 277.886 312.786 280.348C312.898 279.589 312.976 278.819 312.976 278.029C312.976 269.281 305.863 262.186 297.088 262.186C288.314 262.186 281.201 269.281 281.201 278.029C281.201 279.285 281.365 280.5 281.64 281.672C276.84 280.527 273.258 276.223 273.258 271.09C273.258 268.029 274.561 265.092 276.834 263.031C277.377 262.54 277.639 261.857 277.522 261.247C277.157 259.373 277.134 257.446 277.457 255.523C278.54 249.011 283.634 243.838 290.132 242.65C297.265 241.341 304.397 244.961 307.479 251.438C307.757 252.024 308.294 252.434 308.953 252.566C315.888 253.944 320.919 260.068 320.919 267.128V267.132Z" fill="#FFA807"/>
</g>
<path d="M149.338 217.037C176.538 217.037 198.588 195.05 198.588 167.927C198.588 140.804 176.538 118.816 149.338 118.816C122.138 118.816 100.088 140.804 100.088 167.927C100.088 195.05 122.138 217.037 149.338 217.037Z" fill="#292929"/>
<path d="M541.75 358.032C568.95 358.032 591 336.044 591 308.921C591 281.798 568.95 259.811 541.75 259.811C514.55 259.811 492.5 281.798 492.5 308.921C492.5 336.044 514.55 358.032 541.75 358.032Z" fill="#292929"/>
<mask id="mask3_929_619" style="mask-type:luminance" maskUnits="userSpaceOnUse" x="517" y="285" width="49" height="48">
<path d="M565.581 285.159H517.92V332.685H565.581V285.159Z" fill="white"/>
</mask>
<g mask="url(#mask3_929_619)">
<path d="M537.779 320.804C537.779 325.406 539.758 329.536 542.902 332.432C541.876 332.582 540.832 332.685 539.765 332.685C527.721 332.685 517.92 322.912 517.92 310.902C517.92 298.892 527.721 289.119 539.765 289.119H541.751V310.371C539.29 313.158 537.779 316.799 537.779 320.804ZM565.581 320.804C565.581 327.365 560.246 332.685 553.666 332.685C547.085 332.685 541.751 327.365 541.751 320.804C541.751 314.242 547.085 308.922 553.666 308.922C560.246 308.922 565.581 314.242 565.581 320.804ZM558.829 317.895L561.244 315.487L558.996 313.247L556.581 315.655C555.715 315.165 554.73 314.863 553.664 314.863C552.598 314.863 551.613 315.165 550.747 315.655L548.333 313.247L546.085 315.487L548.498 317.895C548.009 318.758 547.705 319.74 547.705 320.804C547.705 321.867 548.009 322.849 548.498 323.712L546.085 326.12L548.333 328.36L550.747 325.952C551.613 326.442 552.598 326.744 553.664 326.744C554.73 326.744 555.715 326.442 556.581 325.952L558.996 328.36L561.244 326.12L558.829 323.712C559.32 322.849 559.624 321.867 559.624 320.804C559.624 319.74 559.32 318.758 558.829 317.895ZM547.708 285.159H545.722V304.961H565.581V302.981C565.581 293.156 557.561 285.159 547.708 285.159ZM553.666 318.031C552.133 318.031 550.886 319.275 550.886 320.804C550.886 322.332 552.133 323.576 553.666 323.576C555.199 323.576 556.446 322.332 556.446 320.804C556.446 319.275 555.199 318.031 553.666 318.031Z" fill="#FFA807"/>
</g>
<path d="M301.855 109.31C301.855 106.685 299.721 104.558 297.088 104.558C294.456 104.558 292.322 106.685 292.322 109.31V205.947C292.322 208.572 294.456 210.7 297.088 210.7C299.721 210.7 301.855 208.572 301.855 205.947V109.31Z" fill="#292929"/>
<path d="M202.792 201.057C200.597 199.607 197.64 200.205 196.186 202.393C194.732 204.581 195.331 207.53 197.526 208.98L241.988 238.365C244.182 239.815 247.14 239.217 248.594 237.029C250.048 234.841 249.448 231.892 247.254 230.442L202.792 201.057Z" fill="#292929"/>
<path d="M107.924 295.766C105.325 296.185 103.559 298.625 103.98 301.216C104.4 303.808 106.847 305.568 109.445 305.15L238.426 284.354C241.024 283.936 242.79 281.495 242.37 278.904C241.95 276.313 239.503 274.552 236.904 274.971L107.924 295.766Z" fill="#292929"/>
<path d="M355.907 273.333C353.317 272.865 350.836 274.579 350.366 277.161C349.897 279.744 351.615 282.218 354.205 282.686L482.763 305.941C485.353 306.409 487.833 304.696 488.303 302.113C488.773 299.53 487.054 297.057 484.464 296.588L355.907 273.333Z" fill="#292929"/>
<path d="M399.838 211.803C402.117 210.491 402.898 207.584 401.582 205.311C400.266 203.038 397.351 202.259 395.072 203.571L348.877 230.166C346.597 231.479 345.816 234.385 347.132 236.659C348.448 238.932 351.363 239.711 353.643 238.398L399.838 211.803Z" fill="#292929"/>
<g clip-path="url(#clip0_929_619)">
<path d="M157.963 165.781L156.886 165.16C157.138 164.342 157.312 163.49 157.312 162.589C157.312 161.688 157.138 160.836 156.886 160.018L157.963 159.397C158.901 158.856 159.222 157.66 158.681 156.724C158.141 155.786 156.944 155.464 156.006 156.003L154.941 156.618C153.756 155.341 152.213 154.415 150.458 154.013V152.797C150.458 151.716 149.581 150.839 148.5 150.839C147.419 150.839 146.542 151.716 146.542 152.797V154.013C144.787 154.415 143.242 155.341 142.059 156.618L140.994 156.003C140.056 155.462 138.859 155.786 138.319 156.724C137.778 157.662 138.101 158.858 139.037 159.399L140.114 160.02C139.862 160.838 139.688 161.69 139.688 162.591C139.688 163.492 139.862 164.344 140.114 165.162L139.037 165.783C138.099 166.323 137.778 167.52 138.319 168.458C138.859 169.396 140.056 169.717 140.994 169.179L142.059 168.564C143.244 169.841 144.787 170.767 146.542 171.168V172.384C146.542 173.465 147.419 174.343 148.5 174.343C149.581 174.343 150.458 173.465 150.458 172.384V171.168C152.213 170.767 153.758 169.841 154.941 168.564L156.006 169.179C156.944 169.719 158.141 169.396 158.681 168.46C159.222 167.522 158.899 166.325 157.963 165.785V165.781ZM148.5 165.528C146.88 165.528 145.562 164.21 145.562 162.591C145.562 160.971 146.88 159.653 148.5 159.653C150.12 159.653 151.438 160.971 151.438 162.591C151.438 164.21 150.12 165.528 148.5 165.528ZM130.875 182.174C130.201 182.174 129.549 182.258 128.917 182.39V168.466C128.917 165.989 129.841 163.725 131.365 161.997C131.88 161.414 132.835 161.792 132.833 162.569C132.833 162.577 132.833 162.583 132.833 162.591C132.833 171.243 139.848 178.257 148.5 178.257C157.152 178.257 164.167 171.243 164.167 162.591C164.167 162.583 164.167 162.577 164.167 162.569C164.167 161.792 165.12 161.414 165.635 161.997C167.157 163.723 168.083 165.989 168.083 168.466V182.39C167.451 182.258 166.799 182.174 166.125 182.174H156.038C154.113 182.174 152.278 182.877 150.856 184.132H146.148C144.726 182.877 142.891 182.174 140.966 182.174H130.875ZM172 190.987C172 193.691 169.809 195.882 167.104 195.882H129.896C127.191 195.882 125 193.691 125 190.987C125 188.282 127.191 186.091 129.896 186.091H140.962C142.116 186.091 143.209 186.598 143.953 187.477L144.436 188.049H152.562L153.045 187.477C153.789 186.598 154.882 186.091 156.036 186.091H167.104C169.809 186.091 172 188.282 172 190.987Z" fill="#FFA807"/>
</g>
<g clip-path="url(#clip1_929_619)">
<mask id="mask4_929_619" style="mask-type:luminance" maskUnits="userSpaceOnUse" x="22" y="288" width="54" height="55">
<path d="M22 288.841H76V342.841H22V288.841Z" fill="white"/>
</mask>
<g mask="url(#mask4_929_619)">
<path d="M49 315.841C49 315.841 43.6 325.966 35.5 325.966C29.9088 325.966 25.375 321.432 25.375 315.841C25.375 310.249 29.9088 305.716 35.5 305.716C43.6 305.716 49 315.841 49 315.841Z" stroke="#FFA807" stroke-width="4" stroke-miterlimit="10" stroke-linecap="round" stroke-linejoin="round"/>
<path d="M49 315.841C49 315.841 54.4 325.966 62.5 325.966C68.0912 325.966 72.625 321.432 72.625 315.841C72.625 310.249 68.0912 305.716 62.5 305.716C54.4 305.716 49 315.841 49 315.841Z" stroke="#FFA807" stroke-width="4" stroke-miterlimit="10" stroke-linecap="round" stroke-linejoin="round"/>
</g>
</g>
<defs>
<clipPath id="clip0_929_619">
<rect width="47" height="47" fill="white" transform="translate(125 150.841)"/>
</clipPath>
<clipPath id="clip1_929_619">
<rect width="54" height="54" fill="white" transform="translate(22 288.841)"/>
</clipPath>
</defs>
</svg>
